<?xml version="1.0" standalone="no"?>
<!DOCTYPE svg PUBLIC "-//W3C//DTD SVG 20010904//EN"
 "http://www.w3.org/TR/2001/REC-SVG-20010904/DTD/svg10.dtd">
<svg version="1.0" xmlns="http://www.w3.org/2000/svg"
 width="850.000000pt" height="850.000000pt" viewBox="0 0 850.000000 850.000000"
 preserveAspectRatio="xMidYMid meet">
<metadata>
Created by potrace 1.14, written by Peter Selinger 2001-2017
</metadata>
<g transform="translate(0.000000,850.000000) scale(0.100000,-0.100000)"
fill="#000000" stroke="none">
<path d="M1360 8489 c-177 -23 -361 -79 -525 -160 -419 -206 -701 -576 -807
-1059 l-23 -105 0 -2915 0 -2915 23 -105 c70 -316 201 -564 413 -777 214 -215
472 -350 810 -425 l104 -23 2895 0 2895 0 104 23 c161 36 285 78 416 143 419
206 701 576 807 1059 l23 105 0 2915 0 2915 -23 105 c-70 316 -201 564 -413
777 -212 213 -466 347 -805 425 l-99 23 -2865 1 c-1576 1 -2894 -2 -2930 -7z
m1808 -936 c11 -10 42 -70 70 -133 54 -122 53 -120 67 -365 6 -99 6 -100 40
-130 50 -44 67 -93 73 -219 l5 -108 32 -20 c18 -10 43 -33 55 -51 35 -51 88
-86 389 -253 157 -87 299 -171 318 -187 l33 -29 0 -2440 0 -2440 36 4 c27 3
38 0 45 -14 14 -27 63 -48 109 -48 23 0 418 95 878 211 795 201 841 211 907
206 81 -7 975 -265 1039 -300 l38 -22 -6 -74 c-3 -41 -8 -76 -10 -78 -4 -4
-3780 -63 -4050 -63 l-149 0 7 293 c22 982 78 3355 91 3867 23 919 23 905 -36
936 -53 27 -114 8 -139 -43 -14 -29 -15 -52 -40 -1103 -5 -250 -15 -642 -20
-870 -6 -228 -22 -887 -35 -1465 -14 -577 -28 -1179 -31 -1336 l-7 -286 -558
-8 c-306 -4 -562 -4 -568 -1 -30 19 -28 83 20 838 268 4201 268 4209 287 4251
10 23 35 57 56 74 20 18 159 94 308 169 356 179 365 187 387 356 8 59 21 97
53 158 l42 81 6 172 c4 101 12 184 19 202 14 35 127 221 150 249 14 16 44 34
62 35 4 1 16 -7 27 -16z"/>
<path d="M2505 6122 c-95 -33 -170 -100 -234 -210 -81 -139 -124 -339 -102
-473 14 -89 36 -129 105 -201 44 -46 66 -60 111 -73 154 -45 333 60 424 248
89 183 103 393 36 533 -25 50 -125 150 -182 179 -37 20 -97 18 -158 -3z"/>
</g>
</svg>
