<?xml version="1.0" standalone="no"?>
<!DOCTYPE svg PUBLIC "-//W3C//DTD SVG 20010904//EN"
 "http://www.w3.org/TR/2001/REC-SVG-20010904/DTD/svg10.dtd">
<svg version="1.0" xmlns="http://www.w3.org/2000/svg"
 width="2835.000000pt" height="2835.000000pt" viewBox="0 0 2835.000000 2835.000000"
 preserveAspectRatio="xMidYMid meet">
<metadata>
Created by potrace 1.14, written by Peter Selinger 2001-2017
</metadata>
<g transform="translate(0.000000,2835.000000) scale(0.100000,-0.100000)"
fill="#000000" stroke="none">
<path d="M10899 26180 c-127 -67 -258 -325 -384 -757 -25 -86 -45 -166 -45
-177 0 -12 -70 -140 -155 -286 l-154 -265 0 -674 -1 -674 -97 -54 c-359 -202
-364 -205 -353 -218 7 -8 9 -139 8 -400 l-3 -388 -750 -394 c-412 -216 -993
-522 -1290 -678 l-541 -285 4 -37 c2 -21 -366 -4715 -817 -10431 -452 -5716
-821 -10408 -821 -10427 0 -33 2 -35 34 -35 33 0 34 1 40 48 3 26 54 657 112
1402 59 745 107 1356 109 1358 2 3 994 271 3190 863 776 209 1445 390 1488
401 42 12 80 18 84 15 6 -6 -57 -3315 -74 -3875 l-6 -212 41 0 42 0 0 98 c0
187 80 3966 84 3970 4 3 1062 -278 2664 -708 288 -77 528 -140 533 -140 5 0 9
8 9 17 0 15 1 15 13 -1 12 -17 55 -6 687 163 1761 471 4834 1294 6360 1704
294 79 538 141 541 138 3 -3 0 -897 -7 -1986 -7 -1089 -13 -2267 -13 -2617
l-1 -638 34 0 34 0 6 503 c3 276 11 1449 17 2607 6 1158 13 2107 15 2109 3 4
3465 -980 3857 -1096 l47 -14 0 -2054 0 -2055 40 0 40 0 0 2066 0 2066 -21 5
c-13 4 -19 12 -16 22 3 14 -96 45 -622 195 -344 98 -1244 356 -1998 572 -755
217 -1379 394 -1387 394 -8 0 -17 -8 -19 -17 -4 -17 -5 -17 -6 0 0 9 -7 17
-15 17 -8 0 -216 -54 -463 -121 -246 -66 -1053 -282 -1793 -480 -3148 -843
-3880 -1039 -3966 -1062 l-92 -25 -6 2292 c-21 7255 -35 14630 -27 14645 8 14
-158 113 -1182 704 -656 379 -1286 743 -1402 810 l-210 122 0 440 c0 242 2
446 5 454 3 9 -68 54 -235 145 l-240 131 -5 655 -5 655 -159 275 -159 275 -59
199 c-177 601 -353 844 -539 746z m140 -44 c69 -36 154 -166 225 -344 40 -98
136 -384 136 -403 0 -3 -40 33 -88 82 -71 71 -105 96 -168 126 -71 34 -87 38
-160 38 -72 0 -87 -4 -156 -38 -83 -41 -155 -100 -230 -190 -26 -32 -48 -53
-48 -48 0 6 20 76 45 156 151 486 300 695 444 621z m90 -588 c75 -36 192 -146
263 -248 25 -36 121 -194 212 -353 l166 -287 0 -626 c0 -497 -3 -625 -12 -621
-7 3 -175 93 -373 201 -336 183 -360 194 -370 176 -10 -19 -12 -19 -27 -3 -16
15 -43 1 -393 -195 -207 -117 -378 -212 -380 -212 -3 0 -5 292 -5 648 l0 648
169 293 c184 317 221 371 322 472 148 148 278 181 428 107z m-165 -2055 c-2
-120 -7 -295 -10 -388 l-6 -170 -381 -200 c-209 -110 -468 -246 -574 -301
l-193 -101 0 361 0 362 208 117 c114 64 374 211 577 326 204 115 373 210 377
210 4 1 5 -97 2 -216z m686 -110 c300 -163 551 -301 558 -307 9 -9 12 -101 10
-419 l-3 -406 -589 340 c-324 186 -591 341 -594 343 -2 2 0 178 4 390 l7 385
31 -16 c17 -8 276 -148 576 -310z m-719 -1459 c-11 -505 -97 -4699 -191 -9319
-94 -4620 -174 -8410 -176 -8423 -3 -13 -9 -20 -14 -17 -6 3 -101 -19 -212
-49 -242 -66 -3321 -898 -4033 -1089 -275 -75 -501 -134 -503 -133 -2 3 1402
17814 1414 17933 l6 62 1497 787 c823 433 1660 874 1861 980 201 106 366 191
368 190 1 -2 -6 -417 -17 -922z m971 417 c475 -274 1360 -785 1968 -1136 608
-350 1112 -643 1120 -651 13 -13 17 -1006 34 -8474 10 -4653 16 -8463 13
-8466 -3 -4 -270 -77 -593 -164 l-587 -158 -466 124 c-1938 520 -2737 736
-2743 742 -5 5 376 18666 381 18680 3 6 65 -29 873 -497z"/>
<path d="M8896 19333 c-21 -81 -43 -156 -47 -165 -5 -9 -100 -81 -212 -161
-111 -79 -280 -199 -375 -266 l-172 -122 17 -30 c10 -16 21 -29 26 -29 4 0
183 124 396 274 l387 275 47 177 c26 98 45 179 43 181 -2 2 -19 6 -37 9 l-34
6 -39 -149z"/>
</g>
</svg>
